PathFileType	4	(X/Y/Z)	Patient4_TMGait_0pt6_01_left_01.trc.trc
DataRate	CameraRate	NumFrames	NumMarkers	Units	OrigDataRate	OrigDataStartFrame	OrigNumFrames
82.352941176471	82.352941176471	5	33	mm	82.352941176471	124	       141
Frame#	Time	Sacral			L.Shoulder			Chest			R.Shoulder			Neck			R.ASIS			L.ASIS			R.Thigh.Superior			R.Thigh.Lateral			R.Thigh.Inferior			R.Patella			L.Thigh.Superior			L.Thigh.Lateral			L.Thigh.Inferior			L.Patella			L.Shank.Superior			L.Shank.Lateral			L.Shank.Inferior			R.Shank.Superior			R.Shank.Lateral			R.Shank.Inferior			R.Heel			R.Midfoot.Superior			R.Midfoot.Lateral			R.Toe			L.Heel			L.Midfoot.Lateral			L.Midfoot.Superior			L.Toe			L.Elbow			L.Wrist			R.Elbow			R.Wrist			
		X1	Y1	Z1	X2	Y2	Z2	X3	Y3	Z3	X4	Y4	Z4	X5	Y5	Z5	X6	Y6	Z6	X7	Y7	Z7	X8	Y8	Z8	X9	Y9	Z9	X10	Y10	Z10	X11	Y11	Z11	X12	Y12	Z12	X13	Y13	Z13	X14	Y14	Z14	X15	Y15	Z15	X16	Y16	Z16	X17	Y17	Z17	X18	Y18	Z18	X19	Y19	Z19	X20	Y20	Z20	X21	Y21	Z21	X22	Y22	Z22	X23	Y23	Z23	X24	Y24	Z24	X25	Y25	Z25	X26	Y26	Z26	X27	Y27	Z27	X28	Y28	Z28	X29	Y29	Z29	X30	Y30	Z30	X31	Y31	Z31	X32	Y32	Z32	X33	Y33	Z33	

124	2.663571428571	600.267975912238	995.249419017682	492.311679889452	720.542586943802	1428.240319180546	296.078838350123	859.298112479000	1357.369513449135	426.482135492199	817.095048510974	1425.382350257288	616.142578670578	741.458826246697	1484.709927672619	450.781212944488	839.680319806404	927.812962730427	571.415429033304	785.871442043947	954.756949997500	301.170944142787	833.304978153397	716.128300430296	541.655539471338	732.216648470789	621.410885919123	607.693392345823	786.178841985593	556.859285962061	522.794251903410	763.719529450575	469.355275214070	525.875502035817	870.544734947190	770.138520400823	328.993781004024	812.748567870127	636.141205630194	266.798693083312	919.525537500009	580.178309685860	321.818308754994	944.945013077115	515.442369387204	321.988097076145	932.022193529369	442.428222975303	316.835543161636	869.251360980363	307.482887147054	277.077795187682	963.845980379219	216.078763753701	332.226100186851	720.661271990467	386.981643268549	533.993809027810	634.693156417673	296.588626536427	598.697693765121	653.560685945471	197.536727063110	531.256745104754	495.537831515303	44.464239745459	499.558944991242	666.749242257729	95.169352776484	537.581109650756	576.997801679610	36.330198281589	574.999739113135	785.432928227946	39.663807284222	569.863689952962	889.915128898295	39.260810361392	384.317464066160	959.165929284018	41.051449070734	299.834266036961	1029.183495975239	119.484852097387	312.919464300585	1161.749968003585	90.686557378735	280.845395392639	583.128966018126	1096.259192129997	217.585131981386	551.397743106018	839.696295967093	216.577155943040	978.284223478797	1115.149790354243	702.426941438580	1209.240634299883	1165.027211019160	610.505673751294	
125	2.675714285714	601.499690579710	994.009663801060	489.916114122896	721.749559510581	1426.621860016781	293.900808164732	860.171590454260	1356.188402880658	424.939468915467	817.140458701992	1424.435274098958	614.334474364307	741.727953230544	1483.351292846320	448.665620674008	840.525093736534	926.418554967672	570.618449032242	788.237979779983	953.196668719585	300.082074165037	833.708747141555	714.567741987362	541.279867768380	731.588919384370	620.340813171430	606.603813871702	785.855647805473	555.211010607595	522.236482290530	762.560151007217	467.243911705317	525.118109719959	872.643741067497	768.232919734311	328.421993807739	813.899919925538	634.321256043649	266.855805612553	920.505568643797	578.389707105320	322.147893394234	944.684359628579	512.581747264506	322.990558456198	931.211321524290	439.226767337603	317.765260141327	866.404097737941	305.113094723870	278.289326460836	959.168411080052	212.355941080261	334.269062968905	718.134173554272	385.553041533223	533.265210564279	630.727218103867	296.598458479416	598.217820022253	648.096617447638	197.138602383894	531.038112762410	488.278820630541	45.299862952454	499.739896175435	659.717191316076	95.240564369629	537.699371513741	569.765784694766	36.612858715562	575.070393860797	778.225380738425	39.280562422431	569.967127631137	881.185524591790	38.146624518892	386.107149261725	950.316445204873	38.857491418118	301.464995738861	1022.927310111428	114.602196463763	315.684536684048	1154.676327485967	81.571908334574	283.000317744435	585.709421674715	1093.885002351978	215.490893867911	556.661464925092	836.828757023402	214.698914878388	978.462799622911	1113.964356416260	700.125673126703	1208.292635211971	1165.972379942100	606.795058637159	
126	2.687857142857	602.810672774197	992.889536529362	487.385134520113	723.134249545320	1425.087453707684	291.586391085284	861.154637923229	1355.131021685252	423.361432720587	817.173778673801	1423.609669225877	612.469883848287	742.069693646712	1482.115665679958	446.421169994660	841.444625451727	925.098657423342	569.667230808857	790.714926665844	951.798443807838	298.902040688816	834.253398992588	713.090210665958	540.768409721176	731.129384278129	619.350589401641	605.378492709893	785.735270199360	553.646744611931	521.556178775797	761.672945901739	465.132365412622	524.301520282020	874.637712846570	766.327653719670	327.927691286017	815.134828410412	632.777505179760	266.632374421902	921.445073763435	576.784955234897	322.507479038463	944.341633640622	509.993487209019	323.902294134991	930.442257090273	436.364844697922	318.428873213751	863.919012657796	303.026478261546	279.063959318515	954.894560949811	209.068407481006	335.941837960110	715.757504780094	384.198544908280	532.476530471814	626.849612014319	296.780948571871	597.650173790506	642.743441379347	196.885673812248	530.829321808666	481.049235591676	46.410311588041	499.953234232087	652.806076379629	95.351504109654	537.862703426080	562.566822460239	37.014603821568	575.164964375240	771.046615150348	38.891275908225	570.074201115557	872.947471253753	37.384908327115	387.453606762568	942.057273519486	37.127519192890	302.725085155221	1017.108641115971	110.264481339837	318.162314039791	1148.043659987169	73.205024022348	285.065505578329	589.019059522427	1091.324183957349	213.139716814119	562.813852785496	833.768140490023	212.488791185111	978.040740152347	1112.527206201476	698.058066697315	1207.071370061152	1165.550490901075	603.313537004549	
127	2.700000000000	604.174430828820	991.964561187497	484.766488859711	724.664342288231	1423.718868212785	289.166361179165	862.232123423546	1354.266240446457	421.747756101735	817.220687777882	1422.975126056283	610.554061501320	742.498352067576	1481.079698965543	444.065054163719	842.416161068565	923.930209432775	568.531336111025	793.227446724674	950.652923771025	297.603041778942	834.900241936171	711.769400166868	540.057506235892	730.870793054521	618.486764393949	604.014975073511	785.847329855629	552.229578433516	520.728605350684	761.133780677342	463.059502294894	523.453099421305	876.520035679762	764.590066110151	327.476061076927	816.481973572462	631.619003899078	266.103040102546	922.383990904069	575.478309486034	322.796550829334	943.993186692075	507.802661665784	324.606811970222	929.758132296718	433.946464181378	318.771061410560	861.812595526340	301.336904160245	279.354131334798	951.026269343142	206.321178467379	337.179543868018	713.587707387821	382.965303317469	531.652934725946	623.107834703406	297.200976780757	597.010646894635	637.554261269541	196.834910011230	530.650884414845	473.881225318561	47.894996557001	500.205012401772	646.067671359213	95.518537274507	538.087128760526	555.420706708290	37.587057850286	575.287153570667	763.896185652215	38.504131526270	570.176911710456	865.288478896247	36.964178003290	388.382830761446	934.438290117692	35.877137811571	303.607476212450	1011.663966583074	106.623808666976	320.236174975757	1141.818640274105	65.952724504329	286.888030079320	593.057012470881	1088.664585828551	210.555967647566	569.825379814212	830.615936892498	209.949586668228	977.004492598337	1110.909372073884	696.238739457580	1205.588630704405	1163.732477630981	600.078760476092	
128	2.712142857143	605.561131938621	991.304941813066	482.099752060436	726.303706066742	1422.595023600072	286.670201428564	863.384529938196	1353.657087135883	420.096109766292	817.305489486320	1422.600054852310	608.588415067824	743.021714378685	1480.314795922418	441.617134507026	843.405678596784	922.992849690164	567.194611577572	795.707528801401	949.839416068133	296.159930520003	835.622327720529	710.683218658263	539.101356822186	730.865873552339	617.789700466711	602.521978782260	786.255970791410	551.020746509745	519.746066419862	761.054688931330	461.062638290631	522.618994835122	878.304434919344	763.187336002182	327.019663158216	817.963766346036	630.930979810597	265.260418297755	923.343143580514	574.546271414400	322.912119281754	943.682800163619	506.079596412177	325.011839200617	929.154310685608	432.020394528194	318.774185896274	860.010180242712	300.116558289287	279.150376332499	947.454368400078	204.152897697669	337.964327816192	711.720054450366	381.895089367264	530.830668167789	619.582577043818	297.925332594239	596.321490888969	632.607812337048	197.046658402192	530.525409725557	466.824546591170	49.876623391895	500.497219993402	639.565161138240	95.765228929773	538.388260873715	548.355865772757	38.401568972319	575.436975148811	756.771288663694	38.127417918877	570.266309046544	858.154256315476	36.831503366253	388.942847222886	927.371926547890	35.066398389150	304.133808822617	1006.425531581985	103.745485890641	321.837630161157	1135.865958013844	60.042168176841	288.360099589788	597.802919886306	1086.004960517512	207.766058402353	577.680020337016	827.485605375210	207.086032355272	975.337855241370	1109.194569711833	694.672180470132	1203.828947793380	1160.488932340304	597.112659426047	
